# xmcd CD database file
# Copyright (C) 1993-1997  Ti Kan
#
# Track frame offsets:
#	150
#	13645
#	32337
#	49610
#	63815
#	82485
#	95447
#	109832
#	124855
#	133882
#	142820
#	156375
#	166390
#
# Disc length: 2401 seconds
#
# Revision: 2
# Processed by: cddbd v1.4b41PL1 Copyright (c) Steve Scherf et al.
# Submitted via: xmcd 2.1 PL1
#
DISCID=ac095f0d
DTITLE=Chris Gaffney and The Cold Hard Facts
DYEAR=1900
DGENRE=
TTITLE0=Lift Your Leg
TTITLE1=King O' The Blues
TTITLE2=The Gardens
TTITLE3=Frank's Tavern
TTITLE4=Glass House
TTITLE5=I Was Just Feeling Good
TTITLE6=Fight (Tonight's The Night)
TTITLE7=Room 208
TTITLE8=Accordiana
TTITLE9=As Far As I'm Concerned
TTITLE10=If I Had A Dream
TTITLE11=Lonely Mile
TTITLE12=Daddy's Little Girl
EXTD=
EXTT0=
EXTT1=
EXTT2=
EXTT3=
EXTT4=
EXTT5=
EXTT6=
EXTT7=
EXTT8=
EXTT9=
EXTT10=
EXTT11=
EXTT12=
PLAYORDER=
